<?xml version="1.0" standalone="no"?>
<!DOCTYPE svg PUBLIC "-//W3C//DTD SVG 20010904//EN"
 "http://www.w3.org/TR/2001/REC-SVG-20010904/DTD/svg10.dtd">
<svg version="1.0" xmlns="http://www.w3.org/2000/svg"
 width="700.000000pt" height="700.000000pt" viewBox="0 0 700.000000 700.000000"
 preserveAspectRatio="xMidYMid meet">
<metadata>
Created by potrace 1.14, written by Peter Selinger 2001-2017
</metadata>
<g transform="translate(0.000000,700.000000) scale(0.100000,-0.100000)"
fill="#000000" stroke="none">
<path d="M3278 6995 c-1 -1 -42 -5 -89 -9 -47 -4 -95 -8 -106 -10 -11 -3 -44
-7 -74 -11 -68 -8 -110 -15 -129 -20 -17 -5 -75 -16 -105 -20 -89 -12 -484
-134 -600 -185 -347 -153 -618 -314 -870 -517 -128 -103 -342 -310 -435 -419
-36 -42 -72 -84 -80 -94 -237 -279 -469 -698 -603 -1090 -64 -186 -121 -420
-147 -605 -6 -44 -13 -93 -15 -110 -34 -242 -24 -764 19 -971 2 -12 7 -39 10
-60 14 -86 20 -114 52 -243 61 -242 138 -456 247 -681 63 -131 215 -389 294
-500 141 -198 417 -508 427 -480 8 23 88 303 91 320 3 15 106 385 141 505 35
124 155 553 159 570 1 6 9 35 18 65 9 30 39 138 67 240 28 102 60 214 71 250
11 36 21 74 23 85 2 11 11 43 19 70 17 57 117 412 122 435 2 8 18 65 35 125
17 61 53 189 80 285 27 96 85 306 130 465 45 160 83 297 85 305 2 8 21 78 43
155 22 77 75 264 117 415 41 151 78 283 81 293 5 17 49 -68 156 -303 20 -45
50 -109 115 -250 19 -41 57 -121 84 -178 27 -57 49 -105 49 -107 0 -2 26 -59
58 -127 32 -67 87 -187 122 -265 l65 -142 55 -1 c30 -1 227 -2 437 -3 l382 -2
54 115 c66 139 138 293 214 460 22 48 116 250 181 390 12 25 61 132 111 239
l90 194 11 -44 c6 -24 14 -51 17 -59 3 -8 9 -28 13 -45 4 -16 24 -88 44 -160
42 -149 42 -148 55 -195 19 -72 146 -524 167 -595 8 -27 38 -138 68 -245 30
-107 82 -294 116 -415 34 -121 66 -233 70 -250 4 -16 26 -95 48 -175 23 -80
71 -251 107 -380 36 -129 88 -316 116 -415 29 -99 55 -193 59 -210 8 -30 27
-100 130 -465 28 -102 53 -192 55 -200 2 -8 29 -105 60 -215 31 -110 58 -207
60 -215 3 -8 11 -40 20 -70 9 -30 23 -80 31 -110 32 -116 64 -223 68 -228 6
-5 199 187 283 283 252 286 482 660 618 1005 20 52 41 104 46 115 27 65 107
344 123 425 2 14 9 46 15 73 6 26 14 64 17 85 3 20 7 44 9 52 2 8 7 42 11 75
3 33 8 62 9 65 18 30 26 548 12 729 -7 96 -30 265 -48 356 -6 28 -12 61 -15
75 -20 107 -98 369 -152 516 -98 264 -286 609 -457 839 -184 248 -444 514
-684 699 -92 71 -307 216 -320 216 -5 0 -11 4 -13 8 -6 15 -289 164 -408 214
-266 114 -580 206 -835 244 -27 4 -57 9 -65 10 -8 2 -42 6 -76 9 -33 4 -74 9
-90 11 -32 5 -540 14 -546 9z"/>
<path d="M2753 3115 c-57 -29 -97 -79 -117 -147 -57 -189 151 -359 327 -267
77 39 117 102 124 194 15 178 -172 300 -334 220z"/>
<path d="M3981 3129 c-46 -14 -127 -97 -140 -145 -31 -110 8 -218 99 -275 119
-74 283 -20 337 110 45 108 -5 243 -110 296 -54 27 -122 32 -186 14z"/>
</g>
</svg>
